#!OML:ASF E:\Mandelcareful walks\Project 1\Capture day 1\Session 1\Subject1.ASF
:FULLY-SPECIFIED
:DEGREES
588
root 37.2393 15.467 2.51659 -169.274 -18.0781 172.393
lowerback 40.4574 0.388151 -4.69438
upperback 6.21327 -3.61811 0.0663073
thorax -12.4065 -2.29586 4.30068
lowerneck -30.2037 -0.357508 -3.11379
upperneck 19.4477 1.11001 -1.03308
head 11.2395 0.0935849 0.310433
rclavicle -7.10655e-015 4.52235e-015
rhumerus -20.5752 9.43239 -74.6423
rradius 71.5417
rwrist -10.5287
rhand -13.7323 -25.7236
rfingers 7.12502
rthumb 12.3872 -55.3366
lclavicle -7.10655e-015 4.52235e-015
lhumerus -24.6565 -37.4604 83.9195
lradius 57.493
lwrist 20.2378
lhand -21.9099 -13.4859
lfingers 7.12502
lthumb 4.49574 16.4464
rfemur -54.0826 -11.6918 15.1489
rtibia 40.8286
rfoot 2.68397 1.10335
rtoes -18.296
lfemur -20.2437 9.31287 -29.7516
ltibia 50.9564
lfoot -35.1678 8.12304
ltoes 0.893114
589
root 37.1756 15.4576 2.39232 -169.284 -18.2097 172.18
lowerback 40.498 0.289195 -4.15027
upperback 6.20667 -3.55069 -0.244183
thorax -12.4792 -2.27856 3.65338
lowerneck -30.2184 1.3872 -0.531213
upperneck 20.0946 3.12261 -3.71289
head 11.5688 0.805356 -0.747918
rclavicle -3.10104e-014 2.40529e-014
rhumerus -21.2555 8.04866 -74.6675
rradius 71.1651
rwrist -10.8334
rhand -13.8339 -26.0568
rfingers 7.12502
rthumb 12.2893 -55.6757
lclavicle -3.10104e-014 2.40529e-014
lhumerus -23.4221 -38.0826 83.509
lradius 58.1457
lwrist 20.5386
lhand -22.5828 -13.2385
lfingers 7.12502
lthumb 3.84603 16.7065
rfemur -53.9892 -11.8003 15.3702
rtibia 41.2287
rfoot 4.04862 0.956725
rtoes -18.2208
lfemur -19.3187 9.42251 -30.1031
ltibia 50.5273
lfoot -35.0482 9.4992
ltoes -4.10142
590
root 37.1348 15.4526 2.26261 -169.244 -18.2317 172.301
lowerback 40.3579 0.197043 -3.69711
upperback 6.24033 -3.47328 -0.351653
thorax -12.428 -2.25921 3.26184
lowerneck -30.1102 3.30008 1.64978
upperneck 20.4973 5.51392 -6.19595
head 11.9135 1.68028 -1.60019
rclavicle 2.22639e-014 -7.95139e-016
rhumerus -21.7342 6.81949 -75.1258
rradius 70.7797
rwrist -10.8971
rhand -14.0573 -26.4317
rfingers 7.12502
rthumb 12.0738 -56.0634
lclavicle 2.22639e-014 -7.95139e-016
lhumerus -22.0491 -37.6491 83.1656
lradius 58.6754
lwrist 21.1624
lhand -23.2691 -13.703
lfingers 7.12502
lthumb 3.18323 16.253
rfemur -53.987 -11.5343 15.8395
rtibia 41.7848
rfoot 5.01153 -0.0114992
rtoes -14.4227
lfemur -18.5649 9.51019 -29.9247
ltibia 50.0787
lfoot -35.0503 9.74157
ltoes -4.82906
591
root 37.0983 15.4435 2.12221 -169.127 -18.0861 172.091
lowerback 40.1696 0.228241 -3.69343
upperback 6.32902 -3.44797 -0.451238
thorax -12.2705 -2.26004 3.13162
lowerneck -30.0003 5.32205 3.71887
upperneck 20.9558 8.1999 -8.84932
head 12.4502 2.63664 -2.44015
rclavicle -1.51076e-014 -4.80065e-014
rhumerus -22.2299 6.25569 -75.1916
rradius 70.7227
rwrist -11.7557
rhand -14.1176 -26.6636
rfingers 7.12502
rthumb 12.0157 -56.2987
lclavicle -1.51076e-014 -4.80065e-014
lhumerus -20.7658 -37.0837 82.8645
lradius 59.4516
lwrist 22.0102
lhand -24.2111 -13.3175
lfingers 7.12502
lthumb 2.27344 16.6501
rfemur -53.8929 -11.1544 15.7964
rtibia 42.525
rfoot 4.9836 -0.773236
rtoes -8.57913
lfemur -17.7245 9.7557 -30.0057
ltibia 49.6218
lfoot -35.1981 9.43201
ltoes -4.53953
592
root 37.0672 15.4309 1.96381 -169.361 -17.3454 172.006
lowerback 40.2942 0.742689 -4.08534
upperback 6.43973 -3.02838 -0.471306
thorax -12.1927 -2.08662 3.13295
lowerneck -29.6358 6.86106 5.32593
upperneck 20.8106 10.1841 -10.6779
head 12.7034 3.3927 -3.00876
rclavicle 4.39314e-014 -6.55989e-015
rhumerus -22.7753 5.73045 -75.3232
rradius 70.6302
rwrist -12.4059
rhand -14.377 -27.0282
rfingers 7.12502
rthumb 11.7656 -56.6777
lclavicle 4.39314e-014 -6.55989e-015
lhumerus -19.8252 -37.4807 82.6259
lradius 60.8684
lwrist 23.6507
lhand -26.2937 -10.567
lfingers 7.12502
lthumb 0.262046 19.4126
rfemur -53.3663 -10.1949 15.7317
rtibia 43.2674
rfoot 3.59206 -1.20376
rtoes -5.11292
lfemur -16.5677 10.9182 -29.8576
ltibia 49.2863
lfoot -35.4461 8.67467
ltoes -4.32845
593
root 37.0158 15.4197 1.80044 -169.227 -17.5558 171.741
lowerback 39.9049 0.591483 -3.81285
upperback 6.60498 -3.09176 -0.509795
thorax -11.8834 -2.13967 2.95993
lowerneck -29.2056 8.2232 6.53475
upperneck 20.4877 11.9866 -12.0937
head 12.8751 4.10656 -3.37526
rclavicle -4.37326e-015 -3.4191e-014
rhumerus -23.1598 5.35196 -75.4174
rradius 70.4164
rwrist -12.8524
rhand -14.6787 -27.4813
rfingers 7.12502
rthumb 11.4747 -57.1473
lclavicle -4.37326e-015 -3.4191e-014
lhumerus -18.8512 -37.8149 82.5273
lradius 62.1124
lwrist 25.3766
lhand -27.8295 -9.4142
lfingers 7.12502
lthumb -1.22128 20.5621
rfemur -52.9906 -10.1816 15.4867
rtibia 44.0434
rfoot 1.91877 -1.66035
rtoes -3.00888
lfemur -15.8023 10.9785 -29.8502
ltibia 49.1801
lfoot -35.6357 8.10105
ltoes -4.2054
594
root 36.977 15.4012 1.63448 -168.893 -17.983 171.593
lowerback 39.4013 0.233678 -3.42756
upperback 6.7254 -3.3317 -0.471058
thorax -11.5781 -2.26375 2.88282
lowerneck -28.6889 9.5091 7.3004
upperneck 20.1033 13.816 -13.2759
head 13.0108 4.83482 -3.5602
rclavicle 4.96962e-015 2.38542e-014
rhumerus -23.2172 5.05287 -75.5643
rradius 69.9873
rwrist -13.2059
rhand -14.5805 -27.5327
rfingers 7.12502
rthumb 11.5694 -57.1934
lclavicle 4.96962e-015 2.38542e-014
lhumerus -17.6808 -37.3843 82.285
lradius 62.8373
lwrist 26.3603
lhand -26.9767 -12.2385
lfingers 7.12502
lthumb -0.397585 17.7409
rfemur -52.9744 -10.3084 15.3949
rtibia 44.8749
rfoot 0.779109 -1.81536
rtoes -0.0788361
lfemur -15.5041 10.9963 -29.7023
ltibia 49.3185
lfoot -35.4827 7.80408
ltoes -5.45508
